<svg width="24" height="19" viewBox="0 0 24 19" fill="none" xmlns="http://www.w3.org/2000/svg">
	<path d="M5 13.2569V10.4569H7.8V13.2569H5ZM19 2.74846C18.9978 2.19296 18.7755 1.66097 18.382 1.26896C17.9884 0.876952 17.4555 0.656856 16.9 0.65686H2.7922C2.23525 0.65686 1.7011 0.87811 1.30728 1.27194C0.913449 1.66576 0.6922 2.19991 0.6922 2.75686V15.3569C0.6922 16.2851 1.06095 17.1754 1.71733 17.8317C2.3737 18.4881 3.26394 18.8569 4.1922 18.8569H19.8078C20.7361 18.8569 21.6263 18.4881 22.2827 17.8317C22.939 17.1754 23.3078 16.2851 23.3078 15.3569V6.95686C23.3078 6.39991 23.0865 5.86576 22.6927 5.47194C22.2989 5.07811 21.7648 4.85686 21.2078 4.85686H20.4V14.9789C20.4 15.1645 20.3263 15.3426 20.195 15.4738C20.0637 15.6051 19.8857 15.6789 19.7 15.6789C19.5143 15.6789 19.3363 15.6051 19.205 15.4738C19.0737 15.3426 19 15.1645 19 14.9789V2.74846ZM3.6 5.55686C3.6 5.37121 3.67375 5.19316 3.80503 5.06189C3.9363 4.93061 4.11435 4.85686 4.3 4.85686H15.5C15.6857 4.85686 15.8637 4.93061 15.995 5.06189C16.1262 5.19316 16.2 5.37121 16.2 5.55686C16.2 5.74251 16.1262 5.92056 15.995 6.05184C15.8637 6.18311 15.6857 6.25686 15.5 6.25686H4.3C4.11435 6.25686 3.9363 6.18311 3.80503 6.05184C3.67375 5.92056 3.6 5.74251 3.6 5.55686ZM11.3 9.05686H15.5C15.6857 9.05686 15.8637 9.13061 15.995 9.26189C16.1262 9.39316 16.2 9.57121 16.2 9.75686C16.2 9.94251 16.1262 10.1206 15.995 10.2518C15.8637 10.3831 15.6857 10.4569 15.5 10.4569H11.3C11.1143 10.4569 10.9363 10.3831 10.805 10.2518C10.6737 10.1206 10.6 9.94251 10.6 9.75686C10.6 9.57121 10.6737 9.39316 10.805 9.26189C10.9363 9.13061 11.1143 9.05686 11.3 9.05686ZM10.6 13.9569C10.6 13.7712 10.6737 13.5932 10.805 13.4619C10.9363 13.3306 11.1143 13.2569 11.3 13.2569H15.5C15.6857 13.2569 15.8637 13.3306 15.995 13.4619C16.1262 13.5932 16.2 13.7712 16.2 13.9569C16.2 14.1425 16.1262 14.3206 15.995 14.4518C15.8637 14.5831 15.6857 14.6569 15.5 14.6569H11.3C11.1143 14.6569 10.9363 14.5831 10.805 14.4518C10.6737 14.3206 10.6 14.1425 10.6 13.9569ZM4.3 9.05686H8.5C8.68565 9.05686 8.8637 9.13061 8.99497 9.26189C9.12625 9.39316 9.2 9.57121 9.2 9.75686V13.9569C9.2 14.1425 9.12625 14.3206 8.99497 14.4518C8.8637 14.5831 8.68565 14.6569 8.5 14.6569H4.3C4.11435 14.6569 3.9363 14.5831 3.80503 14.4518C3.67375 14.3206 3.6 14.1425 3.6 13.9569V9.75686C3.6 9.57121 3.67375 9.39316 3.80503 9.26189C3.9363 9.13061 4.11435 9.05686 4.3 9.05686Z" fill="white" />
</svg>
